<?xml version="1.0" encoding="UTF-8"?>
<svg id="Camada_1" data-name="Camada 1" xmlns="http://www.w3.org/2000/svg" viewBox="0 0 962.94 299.05">
  <defs>
    <style>
      .cls-1 {
        fill: #29196c;
      }

      .cls-2 {
        fill: #fff;
      }

      .cls-3 {
        fill: #602cfd;
      }
    </style>
  </defs>
  <g>
    <path class="cls-2" d="M141.67,204.59c-7.46,0-14.57-1.49-21.06-4.19-6.12-2.54-12.86,2.08-12.86,8.71v27.25c-7.58-2.97-14.68-6.9-21.14-11.65v-63.13c6.09,8.39,18.56,8.37,20.17,12.76,1.79,4.9-.51,11.67,1.49,13.17,2,1.51,7.66,1.32,13.42-2.58,3.31-2.25,7.65-6.24,12.23-9.1,3.98-2.48,8.49-4.29,13.19-4.29,8.36,0,21.46-1.58,26.39-10.41,10.94-19.6-8.31-48.28-43.06-48.28-11.58,0-31.1,6.24-40.98,19.21,7.61-22.72,29.67-38.87,55.22-37.51,27.91,1.48,50.49,24.06,51.97,51.97,1.69,31.71-23.62,58.06-54.97,58.06Z"/>
    <g>
      <path class="cls-3" d="M138.65,56.35c-49.35,1.57-89.23,41.97-90.18,91.34-.61,31.57,14.57,59.7,38.15,77.01v-75.2c.01-31.34,26.35-56.64,58.05-54.95,27.91,1.49,50.49,24.06,51.98,51.97,1.69,31.71-23.62,58.06-54.97,58.06-7.46,0-14.57-1.49-21.07-4.19-6.12-2.55-12.86,2.08-12.86,8.71v27.25c11.1,4.36,23.22,6.63,35.91,6.37,49.16-1.03,89.4-40.63,91.17-89.77,1.95-53.97-42.26-98.32-96.18-96.6Z"/>
      <path class="cls-1" d="M130.43,112.85c-15.45,0-45.02,11.12-47.02,34.46-2,23.34,21.14,20.94,23.36,27.03,1.79,4.9-.51,11.67,1.49,13.17,2.01,1.51,7.66,1.32,13.41-2.58,3.31-2.24,7.66-6.25,12.23-9.1,3.98-2.48,8.5-4.29,13.19-4.29,8.36,0,21.46-1.58,26.39-10.41,10.95-19.6-8.31-48.28-43.06-48.28Z"/>
    </g>
  </g>
  <g>
    <path class="cls-2" d="M340.47,213.71h4.98c2.08,0,3.63.43,4.65,1.3,1.02.87,1.53,2.03,1.53,3.48s-.51,2.62-1.53,3.49c-1.02.88-2.57,1.31-4.65,1.31h-1.67v5.47h-3.31v-15.06ZM343.78,216.64v3.74h1.67c1.08,0,1.88-.14,2.4-.42.52-.28.78-.77.78-1.46s-.26-1.18-.78-1.45c-.52-.27-1.32-.41-2.4-.41h-1.67Z"/>
    <path class="cls-2" d="M365.75,224.3c0,1.57-.54,2.75-1.61,3.54-1.08.8-2.57,1.2-4.5,1.2-.68,0-1.36-.06-2.02-.18-.66-.12-1.22-.27-1.69-.44s-.88-.34-1.24-.5c-.36-.16-.64-.31-.82-.44l-.26-.17,1.6-2.63c.17.11.41.25.7.42.3.16.86.38,1.69.65.83.27,1.59.41,2.28.41,1.62,0,2.43-.6,2.43-1.82,0-.48-.29-.89-.85-1.21-.57-.32-1.26-.59-2.08-.8-.82-.21-1.64-.46-2.46-.74s-1.51-.7-2.08-1.28c-.57-.58-.85-1.3-.85-2.17,0-1.51.57-2.67,1.7-3.49,1.13-.82,2.49-1.23,4.07-1.23.67,0,1.33.07,1.97.2s1.19.3,1.62.5c.43.2.82.4,1.15.6.33.2.59.36.76.49l.24.21-1.54,2.48c-.14-.11-.35-.26-.61-.43-.26-.17-.79-.4-1.58-.68-.79-.28-1.56-.43-2.3-.43s-1.29.18-1.6.54-.47.75-.47,1.16c0,.29.21.54.62.76.41.22.93.41,1.54.56.61.15,1.28.35,2.01.6.73.25,1.4.53,2.01.84.61.31,1.12.77,1.54,1.37s.62,1.3.62,2.09Z"/>
    <path class="cls-2" d="M368.08,213.71h3.31v15.06h-3.31v-15.06Z"/>
    <path class="cls-2" d="M381.39,213.46c1.27,0,2.44.26,3.51.78,1.07.52,1.95,1.24,2.64,2.17l-2.61,2.05c-.85-1.12-2.04-1.69-3.55-1.69-1.27,0-2.32.42-3.16,1.26s-1.26,1.92-1.26,3.22.42,2.38,1.26,3.22,1.89,1.26,3.16,1.26c1.48,0,2.66-.58,3.55-1.73l2.61,2.07c-.68.94-1.56,1.67-2.64,2.19-1.08.52-2.25.78-3.51.78-2.19,0-4.02-.73-5.49-2.19-1.47-1.46-2.2-3.33-2.2-5.61s.73-4.15,2.2-5.61c1.47-1.46,3.3-2.19,5.49-2.19Z"/>
    <path class="cls-2" d="M391.72,215.65c1.47-1.46,3.3-2.19,5.49-2.19s4.02.73,5.48,2.19,2.19,3.33,2.19,5.61-.73,4.15-2.19,5.61-3.29,2.19-5.48,2.19-4.02-.73-5.49-2.19c-1.47-1.46-2.2-3.33-2.2-5.61s.73-4.15,2.2-5.61ZM400.37,218.03c-.84-.84-1.89-1.26-3.16-1.26s-2.32.42-3.16,1.26-1.26,1.92-1.26,3.22.42,2.38,1.26,3.22,1.89,1.26,3.16,1.26,2.32-.42,3.16-1.26c.84-.84,1.26-1.91,1.26-3.22s-.42-2.38-1.26-3.22Z"/>
    <path class="cls-2" d="M407.23,213.71h3.31v12.13h5.87v2.93h-9.18v-15.06Z"/>
    <path class="cls-2" d="M419.81,215.65c1.47-1.46,3.3-2.19,5.49-2.19s4.02.73,5.48,2.19,2.19,3.33,2.19,5.61-.73,4.15-2.19,5.61-3.29,2.19-5.48,2.19-4.02-.73-5.49-2.19c-1.47-1.46-2.2-3.33-2.2-5.61s.73-4.15,2.2-5.61ZM428.45,218.03c-.84-.84-1.89-1.26-3.16-1.26s-2.32.42-3.16,1.26-1.26,1.92-1.26,3.22.42,2.38,1.26,3.22,1.89,1.26,3.16,1.26,2.32-.42,3.16-1.26c.84-.84,1.26-1.91,1.26-3.22s-.42-2.38-1.26-3.22Z"/>
    <path class="cls-2" d="M442.66,213.43c1.27,0,2.43.26,3.5.78,1.07.52,1.95,1.25,2.65,2.19l-2.61,2.05c-.85-1.12-2.04-1.69-3.55-1.69-1.27,0-2.32.42-3.15,1.26-.83.84-1.25,1.92-1.25,3.22s.42,2.38,1.25,3.22c.83.84,1.88,1.26,3.15,1.26,1.54,0,2.72-.41,3.55-1.24v-1.62h-2.56v-2.39h5.45v5.6c-.7.91-1.62,1.63-2.78,2.17-1.15.53-2.37.8-3.65.8-2.19,0-4.02-.73-5.49-2.2-1.47-1.47-2.2-3.33-2.2-5.6s.73-4.15,2.2-5.62c1.47-1.47,3.3-2.2,5.49-2.2Z"/>
    <path class="cls-2" d="M451.75,213.71h3.31v15.06h-3.31v-15.06Z"/>
    <path class="cls-2" d="M462.82,213.71h3.84l5.74,15.06h-3.59l-1-2.71h-6.15l-1,2.71h-3.59l5.74-15.06ZM464.74,217.73l-1.99,5.4h3.97l-1.99-5.4Z"/>
    <path class="cls-2" d="M489.25,213.46c1.27,0,2.44.26,3.51.78,1.07.52,1.95,1.24,2.64,2.17l-2.61,2.05c-.85-1.12-2.04-1.69-3.55-1.69-1.27,0-2.32.42-3.16,1.26s-1.26,1.92-1.26,3.22.42,2.38,1.26,3.22,1.89,1.26,3.16,1.26c1.48,0,2.66-.58,3.55-1.73l2.61,2.07c-.68.94-1.56,1.67-2.64,2.19-1.08.52-2.25.78-3.51.78-2.19,0-4.02-.73-5.49-2.19-1.47-1.46-2.2-3.33-2.2-5.61s.73-4.15,2.2-5.61c1.47-1.46,3.3-2.19,5.49-2.19Z"/>
    <path class="cls-2" d="M499.59,215.65c1.47-1.46,3.3-2.19,5.49-2.19s4.02.73,5.48,2.19,2.19,3.33,2.19,5.61-.73,4.15-2.19,5.61-3.29,2.19-5.48,2.19-4.02-.73-5.49-2.19c-1.47-1.46-2.2-3.33-2.2-5.61s.73-4.15,2.2-5.61ZM508.24,218.03c-.84-.84-1.89-1.26-3.16-1.26s-2.32.42-3.16,1.26-1.26,1.92-1.26,3.22.42,2.38,1.26,3.22,1.89,1.26,3.16,1.26,2.32-.42,3.16-1.26c.84-.84,1.26-1.91,1.26-3.22s-.42-2.38-1.26-3.22Z"/>
    <path class="cls-2" d="M515.1,213.71h3.72l4.78,7.92,4.83-7.92h3.72v15.06h-3.31v-9.67l-5.23,8.5-5.19-8.5v9.67h-3.31v-15.06Z"/>
    <path class="cls-2" d="M554.07,224.3c0,1.57-.54,2.75-1.61,3.54-1.08.8-2.57,1.2-4.5,1.2-.68,0-1.36-.06-2.02-.18-.66-.12-1.22-.27-1.69-.44s-.88-.34-1.24-.5c-.36-.16-.64-.31-.82-.44l-.26-.17,1.6-2.63c.17.11.41.25.7.42.3.16.86.38,1.69.65.83.27,1.59.41,2.28.41,1.62,0,2.43-.6,2.43-1.82,0-.48-.29-.89-.85-1.21-.57-.32-1.26-.59-2.08-.8-.82-.21-1.64-.46-2.46-.74s-1.51-.7-2.08-1.28c-.57-.58-.85-1.3-.85-2.17,0-1.51.57-2.67,1.7-3.49,1.13-.82,2.49-1.23,4.07-1.23.67,0,1.33.07,1.97.2s1.19.3,1.62.5c.43.2.82.4,1.15.6.33.2.59.36.76.49l.24.21-1.54,2.48c-.14-.11-.35-.26-.61-.43-.26-.17-.79-.4-1.58-.68-.79-.28-1.56-.43-2.3-.43s-1.29.18-1.6.54-.47.75-.47,1.16c0,.29.21.54.62.76.41.22.93.41,1.54.56.61.15,1.28.35,2.01.6.73.25,1.4.53,2.01.84.61.31,1.12.77,1.54,1.37s.62,1.3.62,2.09Z"/>
    <path class="cls-2" d="M556.4,213.71h3.31v15.06h-3.31v-15.06Z"/>
    <path class="cls-2" d="M574.14,224.3c0,1.57-.54,2.75-1.61,3.54-1.08.8-2.57,1.2-4.5,1.2-.68,0-1.36-.06-2.02-.18-.66-.12-1.22-.27-1.69-.44s-.88-.34-1.24-.5c-.36-.16-.64-.31-.82-.44l-.26-.17,1.6-2.63c.17.11.41.25.7.42.3.16.86.38,1.69.65.83.27,1.59.41,2.28.41,1.62,0,2.43-.6,2.43-1.82,0-.48-.29-.89-.85-1.21-.57-.32-1.26-.59-2.08-.8-.82-.21-1.64-.46-2.46-.74s-1.51-.7-2.08-1.28c-.57-.58-.85-1.3-.85-2.17,0-1.51.57-2.67,1.7-3.49,1.13-.82,2.49-1.23,4.07-1.23.67,0,1.33.07,1.97.2s1.19.3,1.62.5c.43.2.82.4,1.15.6.33.2.59.36.76.49l.24.21-1.54,2.48c-.14-.11-.35-.26-.61-.43-.26-.17-.79-.4-1.58-.68-.79-.28-1.56-.43-2.3-.43s-1.29.18-1.6.54-.47.75-.47,1.16c0,.29.21.54.62.76.41.22.93.41,1.54.56.61.15,1.28.35,2.01.6.73.25,1.4.53,2.01.84.61.31,1.12.77,1.54,1.37s.62,1.3.62,2.09Z"/>
    <path class="cls-2" d="M575.83,213.71h11.79v2.93h-4.25v12.13h-3.31v-12.13h-4.23v-2.93Z"/>
    <path class="cls-2" d="M589.65,228.77v-15.06h10.42v2.93h-7.11v3.12h6.41v2.95h-6.41v3.14h7.11v2.93h-10.42Z"/>
    <path class="cls-2" d="M602.72,213.71h3.72l4.78,7.92,4.83-7.92h3.72v15.06h-3.31v-9.67l-5.23,8.5-5.19-8.5v9.67h-3.31v-15.06Z"/>
    <path class="cls-2" d="M627.53,213.71h3.84l5.74,15.06h-3.59l-1-2.71h-6.15l-1,2.71h-3.59l5.74-15.06ZM629.46,217.73l-1.99,5.4h3.97l-1.99-5.4Z"/>
    <path class="cls-2" d="M646.63,213.71h3.31v15.06h-3.31v-15.06Z"/>
    <path class="cls-2" d="M652.58,213.71h3.72l6.66,10.14v-10.14h3.33v15.06h-3.72l-6.68-10.17v10.17h-3.31v-15.06Z"/>
    <path class="cls-2" d="M668.3,213.71h11.79v2.93h-4.25v12.13h-3.31v-12.13h-4.23v-2.93Z"/>
    <path class="cls-2" d="M682.12,228.77v-15.06h10.42v2.93h-7.11v3.12h6.41v2.95h-6.41v3.14h7.11v2.93h-10.42Z"/>
    <path class="cls-2" d="M695.19,213.71h3.31v12.13h5.87v2.93h-9.18v-15.06Z"/>
    <path class="cls-2" d="M706.38,213.71h3.31v15.06h-3.31v-15.06Z"/>
    <path class="cls-2" d="M719.68,213.43c1.27,0,2.43.26,3.5.78,1.07.52,1.95,1.25,2.65,2.19l-2.61,2.05c-.85-1.12-2.04-1.69-3.55-1.69-1.27,0-2.32.42-3.15,1.26-.83.84-1.25,1.92-1.25,3.22s.42,2.38,1.25,3.22c.83.84,1.88,1.26,3.15,1.26,1.54,0,2.72-.41,3.55-1.24v-1.62h-2.56v-2.39h5.45v5.6c-.7.91-1.62,1.63-2.78,2.17-1.15.53-2.37.8-3.65.8-2.19,0-4.02-.73-5.49-2.2-1.47-1.47-2.2-3.33-2.2-5.6s.73-4.15,2.2-5.62c1.47-1.47,3.3-2.2,5.49-2.2Z"/>
    <path class="cls-2" d="M728.78,228.77v-15.06h10.42v2.93h-7.11v3.12h6.41v2.95h-6.41v3.14h7.11v2.93h-10.42Z"/>
    <path class="cls-2" d="M741.85,213.71h3.72l6.66,10.14v-10.14h3.33v15.06h-3.72l-6.68-10.17v10.17h-3.31v-15.06Z"/>
    <path class="cls-2" d="M757.57,213.71h11.79v2.93h-4.25v12.13h-3.31v-12.13h-4.23v-2.93Z"/>
    <path class="cls-2" d="M771.39,228.77v-15.06h10.42v2.93h-7.11v3.12h6.41v2.95h-6.41v3.14h7.11v2.93h-10.42Z"/>
  </g>
  <path class="cls-2" d="M354.54,109.83c-6.63-4.11-14.06-6.22-22.1-6.28-6.59,0-12.83,1.47-18.62,4.38v-4.38s-24.6,0-24.6,0v125.5h0c13.58,0,24.6-11.01,24.6-24.6v-12.58c5.73,2.85,11.97,4.3,18.62,4.3,12.13,0,22.53-4.52,30.91-13.44,8.33-8.86,12.56-19.87,12.56-32.71,0-8.46-1.91-16.32-5.69-23.36-3.79-7.07-9.07-12.74-15.68-16.83ZM313.99,150.02c0-6.4,1.77-11.53,5.41-15.69,3.54-4.05,7.86-6.02,13.21-6.02s9.72,1.99,13.35,6.07c3.72,4.19,5.53,9.31,5.53,15.64s-1.81,11.45-5.53,15.64c-3.63,4.09-7.99,6.07-13.35,6.07s-9.66-1.97-13.21-6.02h0c-3.64-4.16-5.41-9.3-5.41-15.69Z"/>
  <path class="cls-2" d="M423.69,103.72c-11.18,0-20.59,3.56-28.04,10.64-6.92,7.1-10.42,17.55-10.42,31.07v50.73h24.93v-49.39c0-9.52,1.95-13.36,3.6-14.91,2.52-2.38,5.77-3.54,9.94-3.54h6.25c0-3.92.48-24.6.48-24.6h-6.73Z"/>
  <path class="cls-2" d="M503.98,109.89c-6.85-4.09-14.5-6.17-22.73-6.17s-15.97,2.06-22.85,6.12c-6.88,4.06-12.35,9.71-16.26,16.79-3.9,7.05-5.87,14.93-5.87,23.4,0,12.91,4.36,23.96,12.96,32.86,8.63,8.92,19.4,13.45,32.01,13.45,8.23,0,15.88-2.08,22.73-6.17,6.85-4.09,12.3-9.75,16.2-16.82,3.9-7.05,5.87-14.9,5.87-23.31s-1.97-16.26-5.87-23.31c-3.91-7.07-9.36-12.73-16.2-16.82ZM481.42,170.9c-5.79,0-10.47-1.94-14.3-5.95-3.86-4.04-5.74-9.03-5.74-15.26s1.88-11.06,5.74-15.1c3.83-4,8.51-5.95,14.3-5.95s10.17,1.95,13.95,5.97c3.82,4.07,5.68,9,5.68,15.08s-1.86,11.11-5.68,15.21c-3.77,4.04-8.33,6-13.94,6Z"/>
  <path class="cls-2" d="M579.17,103.55h-3.12c-21.13,0-38.27,17.13-38.27,38.27v54.68s26.01,0,26.01,0v-54.99c0-3.86,1.23-6.78,3.76-8.92,2.65-2.23,6.44-3.36,11.27-3.36,4.26,0,7.39,1.04,9.31,3.09,1.97,2.1,2.97,5.59,2.97,10.36v53.82s26.01,0,26.01,0v-54.82c0-11.43-3.5-20.74-10.4-27.67-6.91-6.94-16.18-10.45-27.56-10.45Z"/>
  <path class="cls-2" d="M677.76,171.57c-4.47,0-7.75-1.11-10.05-3.4-2.39-2.39-3.65-7.54-3.65-14.89v-24.97h26.8v-24.76h-26.8v-34.22s0,0,0,0c-13.68,0-24.76,11.09-24.76,24.76v9.62s-12.1,0-12.1,0v24.6h12.1v26.13c0,16.66,5.05,28.43,14.96,34.95,6.58,4.49,14.49,6.76,23.51,6.76h12.22v-24.59h-12.22Z"/>
  <g>
    <path class="cls-2" d="M820.94,103.38h-19.36c-3.53,0-6.41,2.87-6.41,6.41v56.86c0,3.12,2.24,5.76,5.21,6.14.26.03.52.05.77.05,1.46,0,2.87-.52,3.97-1.49,1.3-1.14,2.04-2.78,2.04-4.5v-19.72h13.78c12.01,0,21.82-9.77,21.87-21.78.03-5.86-2.24-11.38-6.37-15.53-4.13-4.15-9.64-6.44-15.5-6.44ZM830.91,125.2c.03,2.79-1.04,5.43-3.01,7.41-1.97,1.98-4.59,3.08-7.38,3.08h-13.35v-20.78h13.35c5.67,0,10.33,4.62,10.39,10.29Z"/>
    <path class="cls-2" d="M875.03,140.51h-10.06c-1.29,0-2.5-.5-3.41-1.42-.91-.91-1.41-2.13-1.4-3.42.01-2.65,2.17-4.8,4.82-4.8h17.94c3,0,5.54-2.15,5.9-5.01.21-1.65-.29-3.32-1.39-4.56-1.1-1.25-2.67-1.96-4.33-1.96h-18.54c-8.98,0-16.29,7.3-16.3,16.28,0,4.36,1.69,8.46,4.77,11.54,3.08,3.08,7.18,4.78,11.54,4.78h9.94c2.61,0,4.73,2.12,4.73,4.73s-2.12,4.73-4.73,4.73h-18.18c-2.97,0-5.49,2.14-5.86,4.97-.21,1.64.29,3.29,1.38,4.52,1.09,1.24,2.65,1.95,4.29,1.95h18.9c4.32,0,8.38-1.68,11.43-4.74,3.05-3.05,4.73-7.12,4.73-11.43,0-8.91-7.25-16.16-16.16-16.16Z"/>
    <path class="cls-2" d="M908.36,114.91h.37c3.18,0,5.76-2.59,5.76-5.76s-2.59-5.77-5.77-5.77h-.37c-3.18,0-5.76,2.59-5.76,5.77s2.59,5.76,5.76,5.76Z"/>
    <path class="cls-2" d="M903.43,119.35h-3.98c-3,0-5.54,2.15-5.9,5.01-.21,1.65.29,3.32,1.39,4.56,1.1,1.25,2.67,1.96,4.33,1.96,1.84,0,3.33,1.5,3.33,3.33v32.49c0,3.1,2.22,5.72,5.17,6.09.26.03.51.05.77.05,1.45,0,2.85-.52,3.94-1.48,1.29-1.13,2.02-2.76,2.02-4.47v-36.48c0-6.1-4.96-11.06-11.06-11.06Z"/>
  </g>
  <path class="cls-2" d="M740.43,196.5h3.12c21.13,0,38.27-17.13,38.27-38.27v-54.68s-26.01,0-26.01,0v54.99c0,3.86-1.23,6.78-3.76,8.92-2.65,2.23-6.44,3.36-11.27,3.36-4.26,0-7.39-1.04-9.31-3.09-1.97-2.1-2.97-5.59-2.97-10.36v-53.82s-26.01,0-26.01,0v54.82c0,11.43,3.5,20.74,10.4,27.67,6.91,6.94,16.18,10.45,27.56,10.45Z"/>
</svg>