<?xml version="1.0" encoding="UTF-8"?>
<svg id="Camada_1" data-name="Camada 1" xmlns="http://www.w3.org/2000/svg" viewBox="0 0 253.56 252.26">
  <defs>
    <style>
      .cls-1 {
        fill: #fff;
      }
    </style>
  </defs>
  <path class="cls-1" d="M124.01,19.47c-56.57,1.8-102.28,48.11-103.38,104.7-.7,36.19,16.7,68.43,43.73,88.28v-72.37c6.98,9.63,21.28,9.6,23.12,14.64,2.05,5.61-.59,13.38,1.71,15.1,2.3,1.73,8.78,1.51,15.38-2.96,3.8-2.57,8.78-7.16,14.02-10.43,4.56-2.85,9.74-4.92,15.12-4.92,9.59,0,24.6-1.82,30.25-11.94,12.55-22.47-9.52-55.34-49.36-55.34-13.27,0-35.61,7.15-46.95,21.98,8.75-26.02,34-44.52,63.27-42.96,31.99,1.7,57.87,27.58,59.58,59.57,1.94,36.35-27.07,66.56-63.01,66.56-8.55,0-16.7-1.71-24.15-4.8-7.02-2.92-14.74,2.38-14.74,9.98v31.24c12.72,4.99,26.62,7.6,41.16,7.3,56.36-1.18,102.47-46.57,104.51-102.9,2.24-61.86-48.44-112.7-110.25-110.74Z"/>
</svg>